<?xml version="1.0" encoding="utf-8"?>
<!-- Generator: Adobe Illustrator 18.0.0, SVG Export Plug-In . SVG Version: 6.00 Build 0)  -->
<!DOCTYPE svg PUBLIC "-//W3C//DTD SVG 1.1//EN" "http://www.w3.org/Graphics/SVG/1.1/DTD/svg11.dtd">
<svg version="1.1" id="Layer_1" xmlns:sketch="http://www.bohemiancoding.com/sketch/ns"
	 xmlns="http://www.w3.org/2000/svg" xmlns:xlink="http://www.w3.org/1999/xlink" x="0px" y="0px" viewBox="0 0 117 93"
	 enable-background="new 0 0 117 93" xml:space="preserve">
<title>Product / Axon 2</title>
<desc>Created with Sketch.</desc>
<g id="Page-1" sketch:type="MSPage">
	<g id="Product-_x2F_-Axon-2" transform="translate(0.251366, 0.000000)" sketch:type="MSLayerGroup">
		<path id="Fill-35" sketch:type="MSShapeGroup" fill="#CFD8DC" d="M5.1,87l0.7,0.4l34.4-59l45.1,43.1L4.9,86.2L5.1,87l0.7,0.4
			L5.1,87l0.1,0.8l83.4-15.2L39.8,25.9L3.5,88l1.7-0.3L5.1,87"/>
		<path id="Fill-36" sketch:type="MSShapeGroup" fill="#CFD8DC" d="M5.1,87l0.5,0.6L95.1,7.2l-8.8,64.1L4.9,86.2L5.1,87l0.5,0.6
			L5.1,87l0.1,0.8l82.4-15l9.6-69.5L2.5,88.2l2.7-0.5L5.1,87"/>
		<path id="Fill-37" sketch:type="MSShapeGroup" fill="#CFD8DC" d="M40,27.1l-0.1,0.8l70.2,11l-23.3,32L40.6,26.5L40,27.1l-0.1,0.8
			L40,27.1l-0.5,0.6l47.6,45.5l25.8-35.5L37.7,26l1.8,1.7L40,27.1"/>
		<path id="Fill-38" sketch:type="MSShapeGroup" fill="#CFD8DC" d="M40.3,27.9L95.8,6.2l14.7,31.7L4.8,86.2l0.7,1.4l107.1-49
			l-16-34.5L39.7,26.4L40.3,27.9"/>
		<path id="Fill-39" sketch:type="MSShapeGroup" fill="#F39506" d="M101.4,5.6c0,2.9-2.4,5.3-5.3,5.3c-2.9,0-5.3-2.4-5.3-5.3
			c0-2.9,2.4-5.3,5.3-5.3C99.1,0.4,101.4,2.7,101.4,5.6"/>
		<path id="Fill-40" sketch:type="MSShapeGroup" fill="#F39506" d="M46,27.1c0,2.9-2.4,5.3-5.3,5.3s-5.3-2.4-5.3-5.3
			s2.4-5.3,5.3-5.3S46,24.2,46,27.1"/>
		<path id="Fill-41" sketch:type="MSShapeGroup" fill="#F39506" d="M114.9,38.3c0,2.9-2.4,5.3-5.3,5.3s-5.3-2.4-5.3-5.3
			c0-2.9,2.4-5.3,5.3-5.3S114.9,35.4,114.9,38.3"/>
		<path id="Fill-42" sketch:type="MSShapeGroup" fill="#F39506" d="M92.2,72c0,2.9-2.4,5.3-5.3,5.3s-5.3-2.4-5.3-5.3
			s2.4-5.3,5.3-5.3S92.2,69.1,92.2,72"/>
		<path id="Fill-43" sketch:type="MSShapeGroup" fill="#F39506" d="M10.3,87c0,2.9-2.4,5.3-5.3,5.3c-2.9,0-5.3-2.4-5.3-5.3
			c0-2.9,2.4-5.3,5.3-5.3C8,81.7,10.3,84,10.3,87"/>
	</g>
</g>
</svg>
